<?xml version="1.0" encoding="UTF-8" standalone="no"?>
<!-- Created with Inkscape (http://www.inkscape.org/) -->

<svg
   width="19.444937mm"
   height="29.94701mm"
   viewBox="0 0 19.444937 29.94701"
   version="1.1"
   id="svg1"
   xml:space="preserve"
   sodipodi:docname="Moodboard Wireframe Circadia.svg"
   inkscape:version="1.4.2 (f4327f4, 2025-05-13)"
   xmlns:inkscape="http://www.inkscape.org/namespaces/inkscape"
   xmlns:sodipodi="http://sodipodi.sourceforge.net/DTD/sodipodi-0.dtd"
   xmlns="http://www.w3.org/2000/svg"
   xmlns:svg="http://www.w3.org/2000/svg"><sodipodi:namedview
     id="namedview1"
     pagecolor="#ffffff"
     bordercolor="#000000"
     borderopacity="0.25"
     inkscape:showpageshadow="2"
     inkscape:pageopacity="0.0"
     inkscape:pagecheckerboard="0"
     inkscape:deskcolor="#d1d1d1"
     inkscape:document-units="mm"
     inkscape:zoom="0.26"
     inkscape:cx="-18438.462"
     inkscape:cy="-1086.5385"
     inkscape:window-width="1920"
     inkscape:window-height="1009"
     inkscape:window-x="-8"
     inkscape:window-y="-8"
     inkscape:window-maximized="1"
     inkscape:current-layer="layer1"><inkscape:page
       x="0"
       y="8.9644326e-22"
       width="19.444937"
       height="29.94701"
       id="page2"
       margin="0"
       bleed="0" /></sodipodi:namedview><defs
     id="defs1" /><g
     inkscape:label="Capa 1"
     inkscape:groupmode="layer"
     id="layer1"
     transform="translate(1659.4776,-1940.3214)"><g
       id="g16"
       transform="matrix(1.220487,0,0,1.220487,176.95566,-512.55339)"
       style="fill:#ffffff"
       inkscape:export-filename="..\Downloads\Circadia_logo_simple.png"
       inkscape:export-xdpi="96"
       inkscape:export-ydpi="96"><path
         id="path2"
         style="fill:#ffffff;stroke:none;stroke-width:0.223;stroke-linecap:round;stroke-dasharray:none;paint-order:stroke fill markers"
         d="m -1495.0555,2009.7508 c -0.147,0 -0.3359,0.086 -0.3359,0.4201 v 12.6313 a 6.9296665,6.9296665 0 0 1 1.1695,0.9188 v -8.3251 c 0,0 2.0301,0.9751 2.8138,1.7544 0.9142,0.909 1.8084,2.0066 2.0644,3.2701 0.223,1.101 -0.5483,3.3254 -0.5483,3.3254 0,0 1.1289,-2.0148 1.1509,-3.1244 0.023,-1.1842 -0.5147,-2.3481 -1.0961,-3.3801 -0.7545,-1.3392 -2.1693,-2.2058 -3.0143,-3.4898 -0.7442,-1.1308 -1.1614,-2.4461 -1.7725,-3.654 -0.07,-0.1379 -0.1762,-0.3467 -0.4315,-0.3467 z" /><path
         id="circle10"
         style="fill:#ffffff;stroke:none;stroke-width:0.223;stroke-linecap:round;stroke-dasharray:none;paint-order:stroke fill markers"
         d="m -1500.5233,2023.2641 a 5.6090059,5.6090059 0 0 0 -4.1492,5.4147 5.6090059,5.6090059 0 0 0 5.609,5.609 5.6090059,5.6090059 0 0 0 4.4561,-2.2035 5.6090059,5.6090059 0 0 1 -1.4599,0.1938 5.6090059,5.6090059 0 0 1 -5.609,-5.609 5.6090059,5.6090059 0 0 1 1.153,-3.405 z" /></g></g></svg>
