<?xml version="1.0" encoding="UTF-8" standalone="no"?>
<!-- Created with Inkscape (http://www.inkscape.org/) -->

<svg
   width="40.316402mm"
   height="40.315891mm"
   viewBox="0 0 40.316402 40.315891"
   version="1.1"
   id="svg1"
   xml:space="preserve"
   sodipodi:docname="Moodboard Wireframe Circadia.svg"
   inkscape:version="1.4.2 (f4327f4, 2025-05-13)"
   xmlns:inkscape="http://www.inkscape.org/namespaces/inkscape"
   xmlns:sodipodi="http://sodipodi.sourceforge.net/DTD/sodipodi-0.dtd"
   xmlns="http://www.w3.org/2000/svg"
   xmlns:svg="http://www.w3.org/2000/svg"><sodipodi:namedview
     id="namedview1"
     pagecolor="#ffffff"
     bordercolor="#000000"
     borderopacity="0.25"
     inkscape:showpageshadow="2"
     inkscape:pageopacity="0.0"
     inkscape:pagecheckerboard="0"
     inkscape:deskcolor="#d1d1d1"
     inkscape:document-units="mm"
     inkscape:zoom="0.26"
     inkscape:cx="-18438.462"
     inkscape:cy="-1086.5385"
     inkscape:window-width="1920"
     inkscape:window-height="1009"
     inkscape:window-x="-8"
     inkscape:window-y="-8"
     inkscape:window-maximized="1"
     inkscape:current-layer="layer1"><inkscape:page
       x="0"
       y="-1.7138888e-11"
       width="40.316402"
       height="40.315887"
       id="page2"
       margin="0"
       bleed="0" /></sodipodi:namedview><defs
     id="defs1" /><g
     inkscape:label="Capa 1"
     inkscape:groupmode="layer"
     id="layer1"
     transform="translate(1613.2118,-1938.2353)"><path
       id="circle18"
       style="opacity:1;fill:#ffffff;stroke:none;stroke-width:0.272169;stroke-linecap:round;stroke-dasharray:none;paint-order:stroke fill markers"
       d="m -1593.0534,1938.2351 a 20.158079,20.158079 0 0 0 -20.1585,20.158 20.158079,20.158079 0 0 0 20.1585,20.1579 20.158079,20.158079 0 0 0 20.1579,-20.1579 20.158079,20.158079 0 0 0 -20.1579,-20.158 z m 1.6614,3.9357 c 0.3116,0 0.4405,0.2549 0.5265,0.4232 0.7458,1.4742 1.2549,3.0796 2.1632,4.4597 1.0313,1.5671 2.758,2.6247 3.6789,4.2592 0.7096,1.2595 1.3659,2.6799 1.3379,4.1253 -0.027,1.3542 -1.4046,3.8132 -1.4046,3.8132 0,0 0.9414,-2.7148 0.6692,-4.0586 -0.3124,-1.5421 -1.4039,-2.8816 -2.5197,-3.991 -0.9565,-0.9511 -3.4345,-2.141 -3.4345,-2.141 v 10.1606 a 8.4575679,8.4575679 0 0 0 -1.4273,-1.1213 v -15.4161 c 0,-0.4078 0.231,-0.5132 0.4104,-0.5132 z m -6.6735,16.4931 a 6.8457188,6.8457188 0 0 0 -1.4072,4.1558 6.8457188,6.8457188 0 0 0 6.8456,6.8456 6.8457188,6.8457188 0 0 0 1.7818,-0.2367 6.8457188,6.8457188 0 0 1 -5.439,2.6892 6.8457188,6.8457188 0 0 1 -6.8455,-6.8456 6.8457188,6.8457188 0 0 1 5.0643,-6.6083 z"
       inkscape:export-filename="..\Downloads\Circadia_logo_redondo.png"
       inkscape:export-xdpi="96"
       inkscape:export-ydpi="96" /></g></svg>
